<svg width="1080" height="1080" viewBox="0 0 1080 1080" fill="none" xmlns="http://www.w3.org/2000/svg">
<path d="M351.67 539.763C351.67 355.613 491.38 210 684.707 210C878.033 210 1017.74 355.559 1017.74 539.763C1017.74 723.968 878.033 869.527 684.707 869.527C491.38 869.527 351.67 723.968 351.67 539.763ZM840.654 539.763C840.654 448.939 775.812 371.757 684.707 371.757C593.601 371.757 527.506 448.884 527.506 539.763C527.506 630.643 593.601 707.77 684.707 707.77C775.812 707.77 840.654 630.643 840.654 539.763Z" fill="#F7DB70"/>
<path d="M62 539.763C62 355.613 201.71 210 395.037 210C588.364 210 728.073 355.559 728.073 539.763C728.073 723.968 588.364 869.527 395.037 869.527C201.71 869.527 62 723.968 62 539.763ZM550.984 539.763C550.984 448.939 486.142 371.757 395.037 371.757C303.931 371.757 237.836 448.884 237.836 539.763C237.836 630.643 303.931 707.77 395.037 707.77C486.142 707.77 550.984 630.643 550.984 539.763Z" fill="#E8B020"/>
<path d="M351.669 539.763C351.669 355.559 491.379 210 684.706 210V371.757C593.6 371.757 527.598 448.939 527.598 539.763H351.669Z" fill="#F7DB70"/>
</svg>
